<?xml version="1.0" encoding="utf-8"?>
<!-- Generator: Adobe Illustrator 13.0.0, SVG Export Plug-In . SVG Version: 6.00 Build 14948)  -->
<!DOCTYPE svg PUBLIC "-//W3C//DTD SVG 1.1//EN" "http://www.w3.org/Graphics/SVG/1.1/DTD/svg11.dtd">
<svg version="1.1" id="图层_1" xmlns="http://www.w3.org/2000/svg" xmlns:xlink="http://www.w3.org/1999/xlink" x="0px" y="0px"
	 width="520.435px" height="449.944px" viewBox="0 0 520.435 449.944" enable-background="new 0 0 520.435 449.944"
	 xml:space="preserve">
<path fill-rule="evenodd" clip-rule="evenodd" fill="none" stroke="#B062A4" d="M87.051,7.499l10.441,213.07l11.452,10.451
	l4.715,69.787l-27.956,3.372l-6.399-7.417L75.6,232.368l5.389-6.069l5.052-5.731L74.252,7.499"/>
<path fill-rule="evenodd" clip-rule="evenodd" fill="none" stroke="#B062A4" d="M81.326,226.974l4.378,1.686l18.188-1.349"/>
<path fill-rule="evenodd" clip-rule="evenodd" fill="none" stroke="#B062A4" d="M76.61,231.357l7.41,3.034l24.924-2.36"/>
<path fill-rule="evenodd" clip-rule="evenodd" fill="none" stroke="#B062A4" d="M86.041,229.334l-2.358,5.057l4.042,68.776"/>
<path fill-rule="evenodd" clip-rule="evenodd" fill="none" stroke="#B062A4" d="M78.294,47.281c0,0,16.543,5.065,0.673,11.8"/>
<path fill-rule="evenodd" clip-rule="evenodd" fill="none" stroke="#B062A4" d="M78.294,49.304c0,0,3.739,0.25,0.336,2.022"/>
<path fill-rule="evenodd" clip-rule="evenodd" fill="none" stroke="#B062A4" d="M78.631,53.012c0,0,4.203,0.598,0,3.035"/>
<path fill-rule="evenodd" clip-rule="evenodd" fill="none" stroke="#B062A4" d="M41.582,161.233c0,0,7.277-0.85,4.715,3.371
	c-2.562,4.221,2.475-4.152,8.757,0.674c4.616,3.547,6.531,3.436,19.198,0c20.304-5.506,10.997-1.384,35.028-1.686
	c29.637-0.372,23.973-47.711,71.068-25.285c16.315,7.769,50.643-22.001,71.741,2.697c21.098,24.698,47.285,12.636,57.932,20.228
	s41.11-11.98,50.859-11.463c9.749,0.518,42.383-24.796,59.279-18.879c16.896,5.917,47.452-15.893,50.859-12.474"/>
<path fill-rule="evenodd" clip-rule="evenodd" fill="none" stroke="#B062A4" d="M42.592,187.866l165.375-4.383"/>
<path fill-rule="evenodd" clip-rule="evenodd" fill="none" stroke="#B062A4" d="M267.246,181.798l41.765-3.372
	c0,0,54.091-3.387,61.3-0.674s101.231-2.337,101.38-0.674"/>
<path fill-rule="evenodd" clip-rule="evenodd" fill="none" stroke="#B062A4" d="M41.582,192.249l7.747,3.371l0.337-5.394
	c0,0,13.339-3.304,16.841,1.011c3.501,4.316,1.684,12.474,1.684,12.474l13.809,7.417v-6.068l20.209-1.012l3.031,17.869l30.65,13.822
	l1.347-9.44l19.198-3.708l7.747,2.697l3.705,23.262l39.407,18.88"/>
<path fill-rule="evenodd" clip-rule="evenodd" fill="none" stroke="#B062A4" d="M137.91,226.974l6.736,1.686l18.525-3.708"/>
<path fill-rule="evenodd" clip-rule="evenodd" fill="none" stroke="#B062A4" d="M51.012,192.586c0,0,11.992,0.614,15.494-1.011"/>
<path fill-rule="evenodd" clip-rule="evenodd" fill="none" stroke="#B062A4" d="M261.183,261.362l13.473-2.022l14.146,3.034
	l3.368,40.456l179.521,77.541"/>
<path fill-rule="evenodd" clip-rule="evenodd" fill="none" stroke="#B062A4" d="M286.107,262.373l-25.598,4.72"/>
<path fill-rule="evenodd" clip-rule="evenodd" fill="none" stroke="#B062A4" d="M471.354,388.125l-196.699-87.655l2.021,59.673"/>
<path fill-rule="evenodd" clip-rule="evenodd" fill="none" stroke="#B062A4" d="M207.293,271.476l-53.216-23.262"/>
<path fill-rule="evenodd" clip-rule="evenodd" fill="none" stroke="#B062A4" d="M136.226,238.774l-33.345-14.834"/>
<path fill-rule="evenodd" clip-rule="evenodd" fill="none" stroke="#B062A4" d="M81.662,214.5l-21.219-11.126l1.347,24.611"/>
<path fill-rule="evenodd" clip-rule="evenodd" fill="none" stroke="#B062A4" d="M52.36,200.677l1.347,28.994"/>
<path fill-rule="evenodd" clip-rule="evenodd" fill="none" stroke="#B062A4" d="M143.973,242.145l2.694,49.559"/>
<path fill-rule="evenodd" clip-rule="evenodd" fill="none" stroke="#B062A4" d="M113.996,268.442l25.261,17.531l-0.674,5.394
	l8.083,3.708l9.431,1.011l55.574,39.108"/>
<path fill-rule="evenodd" clip-rule="evenodd" fill="none" stroke="#B062A4" d="M259.5,284.287l4.715,89.678l12.125-7.417
	l53.89,30.342"/>
<path fill-rule="evenodd" clip-rule="evenodd" fill="none" stroke="#B062A4" d="M41.245,293.727L154.75,438.695"/>
<path fill-rule="evenodd" clip-rule="evenodd" fill="none" stroke="#B062A4" d="M41.245,316.315l84.203,121.369"/>
<path fill-rule="evenodd" clip-rule="evenodd" fill="none" stroke="#B062A4" d="M58.759,340.926l15.156-4.382"/>
<path fill-rule="evenodd" clip-rule="evenodd" fill="none" stroke="#B062A4" d="M96.146,392.844l18.524-4.045"/>
<path fill-rule="evenodd" clip-rule="evenodd" fill="none" stroke="#B062A4" d="M84.693,223.603l4.379,1.349l10.104-1.349"/>
<path fill-rule="evenodd" clip-rule="evenodd" fill="none" stroke="#B062A4" d="M226.492,392.844
	c-1.509-1.431-10.048,2.931-8.757-7.08s7.025-12.333-0.337-32.702c-8.036-22.237,1.456-67.532-9.767-83.272
	c-2.906-16.667,26.653-41.772,0-32.702c-6.653-1.608-7.15-13.303-3.368-22.251c-0.348-4.365,1.11-17.54,3.368-24.611
	c1.893-3.28-0.854-8.9,3.031-9.777c2.668-0.602,5.31-0.111,8.083-1.349c2.784-1.242,6.35-3.538,5.726-4.045
	c-0.427-0.348-2.42-2.008-6.063,1.011s-5.106-3.35-9.431,3.371c-1.65,4.728-5.052,0.674-5.052,0.674s-3.036,2.759-4.042,0.674
	c-1.006-2.084,1.011-5.394,1.011-5.394s7.295-8.503,8.42-25.623c0.628-9.561,11.083-17.558,16.504-14.497
	c17.757-6.972,22.903,24.948,22.903,24.948s-3.219,3.631-2.357,7.08c0.861,3.449-2.358,3.708-2.358,3.708s5.699,2.806,9.768,2.023
	c3.553-0.684,7.773-0.365,8.083,0.674c0.735,2.466,1.347,5.057,1.347,5.057s4.769,0.558,7.747,16.183
	c0.546,10.997,4.269,17.428,5.726,22.925s-2.701,11.351-6.399,11.462c-3.699,0.112-5.447-3.539-6.736-2.697
	c-1.289,0.841,3.704,9.05,3.031,11.462s-5.168,4.088-5.052,6.406s1.705,4.214,1.011,6.068c-0.695,1.854-0.816-0.153-1.684,3.034
	c-0.869,3.187-4.703,36.227-8.757,47.199c-4.054,10.973-4.602,12.002-5.052,19.217c-0.45,7.215,1.688,15.109,0.337,22.925
	C244.648,362,236.95,379.64,237.27,382.056c-0.421,4.32,7.712,15.085,5.726,17.868c-0.834,1.168-5.008,0.614-7.073,1.011
	s-5.186,2.856-7.41,2.697C226.288,403.474,228.001,394.276,226.492,392.844z"/>
<path fill-rule="evenodd" clip-rule="evenodd" fill="none" stroke="#B062A4" d="M225.481,142.016c0,0-0.565-7.273,1.347,0.337"/>
<path fill-rule="evenodd" clip-rule="evenodd" fill="none" stroke="#B062A4" d="M215.04,147.747c0,0,4-2.338,4.378-1.012
	c0.379,1.327-4.378,4.046-4.378,4.046"/>
<path fill-rule="evenodd" clip-rule="evenodd" fill="none" stroke="#B062A4" d="M219.418,149.433c0,0-4.801,8.428-7.073,8.428
	s-3.032,0.674-3.032,0.674"/>
<path fill-rule="evenodd" clip-rule="evenodd" fill="none" stroke="#B062A4" d="M221.439,149.433c0,0-8.734,12.733-10.033,13.6
	c-1.42,6.728-6.134,8.314-6.134,8.314"/>
<path fill-rule="evenodd" clip-rule="evenodd" fill="none" stroke="#B062A4" d="M223.124,173.369c0,0,6.492-2.177,8.083-19.554
	c2.388-0.498,9.523,7.602,11.115,10.788c0.834,3.481,1.095,5.943,0.337,8.766c-1.431,1.854-6.442,5.647-8.757,5.731
	c-2.315,0.084-4.505-1.518-6.063-2.697s-5.052-2.697-5.052-2.697L223.124,173.369z"/>
<path fill-rule="evenodd" clip-rule="evenodd" fill="none" stroke="#B062A4" d="M235.585,159.884c0,0,0.993,3.017-4.042,2.697"/>
<path fill-rule="evenodd" clip-rule="evenodd" fill="none" stroke="#B062A4" d="M229.186,164.941c0,0-1.149,4.682,0.337,5.731
	c1.486,1.049,1.997-1.398,3.031-1.012"/>
<path fill-rule="evenodd" clip-rule="evenodd" fill="none" stroke="#B062A4" d="M229.523,174.044c0,0,0.847,0.862,3.031,0.337
	c2.185-0.525,2.695-2.36,2.695-2.36"/>
<path fill-rule="evenodd" clip-rule="evenodd" fill="none" stroke="#B062A4" d="M234.575,167.638c0,0,6.776,2.882,2.021,4.045"/>
<path fill-rule="evenodd" clip-rule="evenodd" fill="none" stroke="#B062A4" d="M222.787,155.501c0,0-8,10.333-6.063,13.485"/>
<path fill-rule="evenodd" clip-rule="evenodd" fill="none" stroke="#B062A4" d="M211.672,172.695c0,0-4.353,4.66-3.705,7.08"/>
<path fill-rule="evenodd" clip-rule="evenodd" fill="none" stroke="#B062A4" d="M215.714,175.055c0,0,3.987-1.458,2.021-2.697
	c-2.185-1.822-2.712-0.191-3.368-0.337c-0.874,0.875-1.347,3.035-1.347,3.035"/>
<path fill-rule="evenodd" clip-rule="evenodd" fill="none" stroke="#B062A4" d="M230.87,160.558c0.637-0.012,3.942-4.56,5.726-2.36"
	/>
<path fill-rule="evenodd" clip-rule="evenodd" fill="none" stroke="#B062A4" d="M237.27,150.781c0,0,7.106,3.727,8.757,12.137"/>
<path fill-rule="evenodd" clip-rule="evenodd" fill="none" stroke="#B062A4" d="M230.197,142.353c0,0-1.026-5.594,2.357-3.371
	s13.565,12.441,14.82,16.52"/>
<path fill-rule="evenodd" clip-rule="evenodd" fill="none" stroke="#B062A4" d="M245.016,173.032c0,0,5.511,2.777,3.705,3.708
	c-1.532,2.026,0.584,0.944-0.674,4.72c-1.094,3.286,3.14,4.153-3.368,4.045c-1.353-0.022-0.456,4.559-3.031,3.372
	c-4.87-2.246-1.934,3.173-5.052,2.023c-3.119-1.15-0.414-3.648-5.389-1.012c-1.86,0.986,0.622-2.322-5.726-3.034
	c-3.911-1.943-0.337-8.428-0.337-8.428l1.684-2.36"/>
<path fill-rule="evenodd" clip-rule="evenodd" fill="none" stroke="#B062A4" d="M241.648,189.889c0,0,3.344,8.526,1.347,8.429
	c-1.997-0.098-5.864,1.88-6.399,5.731c-0.536,3.851,3.4,4.968,4.715,4.383c0.621-0.276,0.889-2.163,2.021-3.371
	c1.266-1.352,2.637-2.364,3.368-2.023s0.39,0.475,0,1.011c-0.39,0.537-3.425,1.532-2.694,2.36s4.979-0.874,7.073-0.337
	c2.094,0.536,0.747,2.299,2.694,3.372c1.948,1.072,3.587,1.353,5.389,1.011c1.802-0.341,2.049-2.098,3.368-1.686
	c3.595,4.689,7.41,3.371,7.41,3.371"/>
<path fill-rule="evenodd" clip-rule="evenodd" fill="none" stroke="#B062A4" d="M248.721,198.655c0,0,4.874,1.406,5.052,3.372"/>
<path fill-rule="evenodd" clip-rule="evenodd" fill="none" stroke="#B062A4" d="M238.617,207.42c0,0,2.877-7.794,7.41-7.417"/>
<path fill-rule="evenodd" clip-rule="evenodd" fill="none" stroke="#B062A4" d="M244.343,202.026c0,0-3.993,4.141-4.378,5.731"/>
<path fill-rule="evenodd" clip-rule="evenodd" fill="none" stroke="#B062A4" d="M237.606,205.397c0,0,2.737-5.753,6.063-6.068"/>
<path fill-rule="evenodd" clip-rule="evenodd" fill="none" stroke="#B062A4" d="M262.194,180.112c0,0,2.337,7.811,2.021,10.451
	c-0.317,2.641-0.674,18.542-0.674,18.542"/>
<path fill-rule="evenodd" clip-rule="evenodd" fill="none" stroke="#B062A4" d="M225.145,177.078c0,0-2.652,2.622-3.031,4.383
	c-0.379,1.762-1.312,9.542-0.337,10.789c0.975,1.246,2.745,1.586,3.368,2.697c0.323,0.578-0.774,4.19-0.337,7.08
	c0.404,2.671,2.358,4.623,2.358,5.394c0,1.606-15.015,11.999-7.073,30.679c6.639,15.617,22.541,15.392,26.271,13.823
	c11.583-4.872,14.883-16.988,13.472-25.959c-1.392-8.852-4.032-11.863-9.094-16.183c-5.063-4.319-9.426-6.317-14.82-6.068
	s-7.073,2.697-7.073,2.697"/>
<path fill-rule="evenodd" clip-rule="evenodd" fill="none" stroke="#B062A4" d="M239.627,213.152
	c-1.66-0.582-3.031,0.605-3.031,1.686c0,0.571,2.709,1.81,4.715,3.372c1.787,1.391,2.86,3.136,3.368,3.371
	c1.079,0.499,3.534-0.444,3.368-2.023C247.882,217.979,241.287,213.733,239.627,213.152z"/>
<path fill-rule="evenodd" clip-rule="evenodd" fill="none" stroke="#B062A4" d="M222.787,238.437
	c-5.933-7.658,1.02-21.232,6.063-21.577"/>
<path fill-rule="evenodd" clip-rule="evenodd" fill="none" stroke="#B062A4" d="M208.978,190.901c0,0-0.902,5.088,0.673,8.428
	s5.389,13.118,5.389,17.868c0,1.299-2.254,3.521-0.674,4.383c1.741,0.949,3.368,0.337,3.368,0.337"/>
<path fill-rule="evenodd" clip-rule="evenodd" fill="none" stroke="#B062A4" d="M217.061,246.528c0,0,0.117,5.745,5.389,3.035
	c4.979-2.559,2.619,7.719,7.073,3.371c5.382-5.252,0.283,5.523,10.778,0.674c1.922-0.888,0.582,6.402,6.269-0.4
	c1.645-1.968,5.183,1.749,5.183,1.749c2.554-2.726,4.31,0.1,5.726-0.337c2.416-0.746,3.031-2.697,3.031-2.697"/>
<path fill-rule="evenodd" clip-rule="evenodd" fill="none" stroke="#B062A4" d="M226.492,389.136c0,0-0.584-6.529,0-8.428
	c0.583-1.899,2.126-25.139,2.021-30.005c-0.101-4.628,2.119-14.094,2.021-17.194c-0.098-3.1-1.195-6.653-1.347-13.486
	c-0.151-6.833,1.302-14.818,1.684-16.52c0.382-1.701,1.966-25.933,2.021-26.296s0.58-1.776,1.347-0.337
	c1.334,2.5-0.887,25.223-1.347,25.959s-1.684-0.674-1.684-0.674"/>
<path fill-rule="evenodd" clip-rule="evenodd" fill="none" stroke="#B062A4" d="M227.502,398.576c0,0,10.421-6.565,14.82-2.36"/>
<path fill-rule="evenodd" clip-rule="evenodd" fill="none" stroke="#B062A4" d="M236.596,381.382
	c-2.479,2.12-6.791-3.53-9.094,0.337"/>
<path fill-rule="evenodd" clip-rule="evenodd" fill="none" stroke="#B062A4" d="M221.776,368.234
	c1.864-2.984,3.731,4.042,6.063-1.011"/>
<path fill-rule="evenodd" clip-rule="evenodd" fill="none" stroke="#B062A4" d="M81.326,329.463l66.352-14.16"/>
<path fill-rule="evenodd" clip-rule="evenodd" fill="none" stroke="#B062A4" d="M102.881,351.714l69.72-15.845"/>
<path fill-rule="evenodd" clip-rule="evenodd" fill="none" stroke="#B062A4" d="M115.344,379.359l88.918-22.251"/>
<path fill-rule="evenodd" clip-rule="evenodd" fill="none" stroke="#B062A4" d="M148.688,416.781c0,0,76.331-22.222,78.141-24.611
	c1.81-2.389-1.868-4.418-2.695-3.708c-2.411,2.069-6.063-1.686-6.063-1.686"/>
<path fill-rule="evenodd" clip-rule="evenodd" fill="none" stroke="#B062A4" d="M43.939,232.031l32.334,26.634"/>
<path fill-rule="evenodd" clip-rule="evenodd" fill="none" stroke="#B062A4" d="M44.276,255.631l24.924-1.012"/>
<path fill-rule="evenodd" clip-rule="evenodd" fill="none" stroke="#B062A4" d="M115.68,287.658l102.728,78.552"/>
<path fill-rule="evenodd" clip-rule="evenodd" fill="none" stroke="#B062A4" d="M248.384,386.439l72.078,50.907"/>
<path fill-rule="evenodd" clip-rule="evenodd" fill="none" stroke="#B062A4" d="M274.993,381.719l80.498,55.291"/>
<path fill-rule="evenodd" clip-rule="evenodd" fill="none" stroke="#B062A4" d="M218.071,187.192c0,0-0.994,4.306,0,6.405
	s0.481,0.73,2.358,4.046c1.876,3.315,1.678,7.887,1.347,9.103c-0.331,1.216,0.673,3.708,0.673,3.708"/>
<path fill-rule="evenodd" clip-rule="evenodd" fill="none" stroke="#B062A4" d="M214.703,194.946c0,0-1.375,4.479,0.502,8.016
	s0.773,5.447,1.519,6.818"/>
<path fill-rule="evenodd" clip-rule="evenodd" fill="none" stroke="#B062A4" d="M258.152,188.203c0,0-3.242-0.373-3.031,2.023
	s2.903,6.496,1.347,9.777"/>
<path fill-rule="evenodd" clip-rule="evenodd" fill="none" stroke="#B062A4" d="M245.353,190.226c0.542,0.542,0.596,1.887,0,2.023
	c-0.595,0.135-1.939-0.253-2.021-1.012C243.251,190.479,244.812,189.684,245.353,190.226z"/>
<path fill-rule="evenodd" clip-rule="evenodd" fill="none" stroke="#B062A4" d="M246.364,195.283
	c0.785-0.163,1.714,1.454,1.01,2.022c-0.704,0.569-2.141,0.274-2.358-0.674C244.8,195.684,245.579,195.446,246.364,195.283z"/>
<path fill-rule="evenodd" clip-rule="evenodd" fill="none" stroke="#B062A4" d="M222.45,195.62c1.001,0.25,1.711,0.984,1.011,1.686
	c-0.701,0.702-2.007,0.615-2.358-0.337C220.752,196.017,221.449,195.37,222.45,195.62z"/>
<path fill-rule="evenodd" clip-rule="evenodd" fill="none" stroke="#B062A4" d="M223.46,201.689c0.409,0.213,0.392,1.3,0,1.349
	c-0.393,0.049-1.413-0.438-1.347-1.011S223.052,201.476,223.46,201.689z"/>
<path fill-rule="evenodd" clip-rule="evenodd" fill="none" stroke="#B062A4" d="M223.797,206.409
	c0.311-0.573,1.602,0.085,1.684,0.674c0.082,0.589-0.514,1.24-1.348,1.011C223.3,207.865,223.486,206.982,223.797,206.409z"/>
<path fill-rule="evenodd" clip-rule="evenodd" fill="none" stroke="#B062A4" d="M254.11,188.203
	c-0.359-0.378-1.549-2.543-2.694-2.36c-1.146,0.184-2.979,2.992-3.369,4.045"/>
<path fill-rule="evenodd" clip-rule="evenodd" fill="none" stroke="#B062A4" d="M403.992,178.763
	c0.46-0.691,3.918,0.098,4.378,0.674s0,2.36,0,2.36s0.772-0.914,1.348-0.337c0.575,0.576,0.806,1.57,0,1.686
	c-0.806,0.115-5.01,0.691-6.736,0C401.254,182.455,403.531,179.455,403.992,178.763z"/>
<path fill-rule="evenodd" clip-rule="evenodd" fill="none" stroke="#B062A4" d="M370.311,178.427
	c-1.612-0.23-1.586,1.332-1.01,2.023c0.575,0.691,2.686,0.691,3.031,0S371.922,178.657,370.311,178.427z"/>
<path fill-rule="evenodd" clip-rule="evenodd" fill="none" stroke="#B062A4" d="M305.306,161.907c0,0,4.042,5.556,4.042,8.091
	s-3.705,7.754-3.705,7.754"/>
<path fill-rule="evenodd" clip-rule="evenodd" fill="none" stroke="#B062A4" d="M183.716,186.18c0-0.448,2.693-0.116,2.358-1.348
	c-0.336-1.232-1.572-1.127-1.684-2.023c-0.112-0.896,2.136-0.898,3.031-0.674s2.584,0.564,3.368,1.349s0.113,1.238,0.337,2.022
	c0.224,0.784,0.677,0.339,1.684,1.012c1.007,0.672,1.233,1.349,0.673,1.349s-8.759,0.448-9.431,0
	C183.382,187.418,183.716,186.629,183.716,186.18z"/>
<path fill-rule="evenodd" clip-rule="evenodd" fill="none" stroke="#B062A4" d="M187.084,185.169c0,0,0.565,0.564,1.684,1.349
	s2.021,0,2.021,0"/>
<path fill-rule="evenodd" clip-rule="evenodd" fill="none" stroke="#B062A4" d="M136.563,185.844
	c0.224-0.56,5.019-0.066,5.389,0.674c0.37,0.741-0.555,1.004,0,2.023c0.555,1.018,0.984,1.004,0.337,2.022
	c-0.647,1.019-5.171,0.741-5.726,0c-0.555-0.741,0.917-1.831,1.01-3.034C137.666,186.325,136.339,186.404,136.563,185.844z"/>
<path fill-rule="evenodd" clip-rule="evenodd" fill="none" stroke="#B062A4" d="M137.91,189.552c0,0,2.337-1.329,3.705,0.337"/>
<path fill-rule="evenodd" clip-rule="evenodd" fill="none" stroke="#B062A4" d="M71.558,186.518c0,0-0.382-1.671,0-2.36
	c0.382-0.689,3.17-1.287,3.705-0.674c0.535,0.612,1.011,3.371,1.011,3.371s0.979,1.227,0.673,1.686
	c-0.306,0.459-0.583,0.368-1.347,0.674c-0.764,0.306-4.364,0.72-5.052,0.337c-0.688-0.383-1.056-0.813-0.673-1.349
	c0.382-0.536,0.812-0.215,1.347-0.674S71.558,186.518,71.558,186.518z"/>
<path fill-rule="evenodd" clip-rule="evenodd" fill="none" stroke="#B062A4" d="M261.52,210.117c0,0,2.016,1.741,1.347,2.697
	c-0.668,0.956-2.649,1.5-3.031,2.36c-0.382,0.86-0.336,4.046-0.336,4.046"/>
</svg>
